<?xml version="1.0" encoding="UTF-8" standalone="no"?>
<!-- Created with Inkscape (http://www.inkscape.org/) -->

<svg
   width="9331.7432mm"
   height="18738.324mm"
   viewBox="0 0 9331.7432 18738.324"
   version="1.1"
   id="svg1"
   xmlns="http://www.w3.org/2000/svg"
   xmlns:svg="http://www.w3.org/2000/svg">
  <defs
     id="defs1">
    <rect
       x="-8980.1572"
       y="-39460.883"
       width="61479.539"
       height="75467.859"
       id="rect27" />
    <rect
       x="-37302.191"
       y="-18133.01"
       width="13038.498"
       height="10102.677"
       id="rect26" />
    <rect
       x="-38856.449"
       y="-18910.139"
       width="12606.76"
       height="8548.4189"
       id="rect25" />
    <rect
       x="-55866.941"
       y="-29099.164"
       width="15197.19"
       height="9670.9385"
       id="rect24" />
    <rect
       x="-51808.602"
       y="-26249.691"
       width="12175.021"
       height="9325.5479"
       id="rect23" />
    <rect
       x="-35057.152"
       y="-34020.98"
       width="20291.701"
       height="23745.609"
       id="rect22" />
    <rect
       x="-34970.805"
       y="-34020.98"
       width="29703.598"
       height="27631.254"
       id="rect21" />
    <rect
       x="6260.2061"
       y="-10318.546"
       width="7684.9424"
       height="4231.0356"
       id="rect6" />
    <rect
       x="-32509.896"
       y="-18003.488"
       width="9757.2861"
       height="3928.8188"
       id="rect4" />
    <rect
       x="-32898.461"
       y="-18176.184"
       width="12649.933"
       height="9152.8525"
       id="rect3" />
  </defs>
  <g
     id="layer1"
     style="display:inline"
     transform="translate(5682.208,19777.136)">
    <path
       id="text26"
       style="font-size:18310.5px;font-family:AppleMyungjo;-inkscape-font-specification:'AppleMyungjo, Normal';fill:currentColor;stroke:currentColor;stroke-width:200;stroke-opacity:1"
       d="m 798.19624,-19692.236 c -724.609273,0 -1296.94526,320.216 -1717.00941,960.636 -420.06693,617.552 -630.10003,1429.519 -630.10003,2435.9 10.5017,587.056 78.7622,1135.99 204.7823,1646.806 -588.0936,335.46 -1139.4313,674.732 -1654.0132,1017.817 -514.582,343.084 -966.154,709.042 -1354.7158,1097.87 -378.0601,388.829 -682.6082,811.966 -913.645,1269.412 -220.5351,449.822 -330.8031,945.389 -330.8031,1486.6988 0,548.9358 126.02,1033.0663 378.0602,1452.3914 262.5417,419.3255 619.599,773.8462 1071.1708,1063.562 462.0736,282.0917 1002.9096,495.5666 1622.5082,640.4244 619.5986,144.8579 1296.9563,217.287 2032.07334,217.287 111.79352,0 246.24128,-7.7833 390.12192,-20.4964 -255.22627,409.1209 -382.83916,1096.6173 -382.83916,2062.4891 H 6.457487 c 0,-891.548 261.541743,-1562.5554 784.624463,-2013.0218 121.64686,-103.2319 632.56415,-464.5431 1532.75245,-1083.9344 425.7649,-290.9262 735.9653,-595.9296 930.6011,-915.0098 206.7998,-319.0808 310.2001,-703.8544 310.2001,-1154.3207 0,-703.8536 -334.5301,-1290.3986 -1003.5893,-1759.6346 -656.894,-478.62 -1484.0943,-717.93 -2481.60102,-717.93 -48.85041,0 -97.307926,0.558 -145.372522,1.673 -139.837358,-617.995 -187.594338,-797.104 -348.791118,-1352.984 388.561872,-236.347 735.11726,-472.694 1039.66574,-709.042 304.54848,-236.347 577.59192,-472.692 819.13032,-709.04 693.1104,-693.793 1039.6653,-1536.256 1039.6653,-2527.389 0,-777.658 -157.5246,-1368.524 -472.5748,-1772.601 -304.5464,-411.698 -708.8582,-617.549 -1212.93372,-617.552 h -0.01 z m -15.74839,1395.221 c 262.54175,0 462.07385,80.053 598.59555,240.159 136.5217,160.106 204.7828,346.896 204.7828,560.371 0,442.198 -189.0302,872.96 -567.0904,1292.285 -367.5596,411.702 -960.903114,834.839 -1780.03352,1269.413 -52.50836,-274.468 -78.76263,-529.876 -78.76263,-766.222 0,-724.29 147.02341,-1334.218 441.07023,-1829.784 294.04676,-510.815 687.85828,-766.222 1181.43797,-766.222 z m -1685.4935,5226.301 h 5.1e-4 c 90.09904,297.984 101.3018,423.38 281.33684,1106.989 -660.0044,81.663 -1235.2399,283.656 -1725.706,605.98 -644.7296,431.697 -967.0945,919.703 -967.0945,1464.0161 0,328.4652 115.565,605.3144 346.6946,830.5472 243.2942,215.8485 535.2469,323.7725 875.8587,323.7725 304.118,0 541.3301,-75.0772 711.6361,-225.2322 182.4706,-159.5401 273.7063,-347.2349 273.7063,-563.084 0,-178.3089 -60.8241,-328.4643 -182.4715,-450.4661 -121.647,-84.4625 -237.2113,-173.6165 -346.6936,-267.4645 -36.4945,-28.154 -103.4004,-75.078 -200.718,-140.771 -97.3176,-65.693 -145.9766,-140.77 -145.9766,-225.232 0,-206.464 170.3057,-403.543 510.9177,-591.237 340.612,-197.079 760.2947,-295.619 1259.04766,-295.619 596.07082,0 1094.82375,168.925 1496.25904,506.774 401.4357,337.85 602.154,778.932 602.154,1323.2459 0,675.6992 -267.6238,1327.9365 -802.8709,1956.7126 -252.19426,264.0461 -507.72287,533.2371 -766.5858,807.5729 -290.45072,13.5655 -560.07434,20.4479 -699.65445,20.4479 -546.08694,0 -1055.41785,-49.5567 -1527.99305,-148.67 -472.5754,-99.1133 -887.3907,-251.5958 -1244.4475,-457.4465 -346.5553,-205.8507 -619.5986,-465.07 -819.1304,-777.658 -199.5318,-320.2117 -299.2985,-697.6048 -299.2985,-1132.1784 0,-388.8288 94.5154,-750.9744 283.5455,-1086.4354 189.0301,-335.46 441.069,-651.86 756.1192,-949.2 315.05,-297.34 672.1083,-579.429 1071.1718,-846.274 409.5629,-274.466 829.627,-537.495 1260.19285,-789.09 z m 672.29126,10215.5224 c -291.95313,0 -547.41201,84.4622 -766.37648,253.3871 -218.96513,168.9249 -328.44763,370.6965 -328.44763,605.3145 0,244.0026 103.4002,450.4662 310.2007,619.3911 206.79985,168.9249 468.34103,253.3871 784.62341,253.3871 316.282673,0 577.8241,-84.4622 784.62394,-253.3871 218.96466,-178.3096 328.44714,-384.7733 328.44714,-619.3911 0,-234.618 -109.48248,-436.3896 -328.44714,-605.3145 -218.96507,-168.9249 -480.506494,-253.3871 -784.62394,-253.3871 z" />
    <text
       xml:space="preserve"
       transform="scale(0.26458333)"
       id="text27"
       style="font-style:normal;font-variant:normal;font-weight:normal;font-stretch:normal;font-size:75140.8px;font-family:AppleMyungjo;-inkscape-font-specification:'AppleMyungjo, Normal';font-variant-ligatures:normal;font-variant-caps:normal;font-variant-numeric:normal;font-variant-east-asian:normal;text-align:start;writing-mode:lr-tb;direction:ltr;white-space:pre;shape-inside:url(#rect27);display:inline;fill:#b8860b;fill-opacity:1;stroke:#d4af37;stroke-width:0;stroke-dasharray:none;stroke-opacity:1"><tspan
         x="-8980.1562"
         y="100412.27"
         id="tspan1">𝄞</tspan></text>
  </g>
</svg>
